<?xml version="1.0" standalone="no"?>
<!DOCTYPE svg PUBLIC "-//W3C//DTD SVG 20010904//EN"
 "http://www.w3.org/TR/2001/REC-SVG-20010904/DTD/svg10.dtd">
<svg version="1.0" xmlns="http://www.w3.org/2000/svg"
 width="1200.000000pt" height="1200.000000pt" viewBox="0 0 1200.000000 1200.000000"
 preserveAspectRatio="xMidYMid meet">
<metadata>
Created by potrace 1.14, written by Peter Selinger 2001-2017
</metadata>
<g transform="translate(0.000000,1200.000000) scale(0.100000,-0.100000)"
fill="#000000" stroke="none">
<path d="M5204 7769 c-357 -34 -556 -359 -454 -738 47 -172 114 -283 368 -605
192 -245 271 -364 316 -476 25 -64 30 -89 30 -170 0 -84 -3 -101 -26 -145 -53
-102 -142 -151 -276 -154 -90 -2 -154 15 -266 70 -44 21 -82 39 -86 39 -4 0
-37 -58 -73 -128 l-66 -128 22 -14 c174 -113 449 -160 645 -109 283 73 450
311 436 623 -8 169 -70 320 -214 521 -51 72 -96 132 -99 135 -6 5 -99 126
-260 340 -39 52 -92 137 -119 189 -47 93 -47 94 -47 195 0 93 2 105 28 149 82
139 267 171 456 79 l58 -28 59 115 c32 64 59 120 59 124 0 20 -118 71 -219 96
-96 24 -174 30 -272 20z"/>
<path d="M3552 6482 l3 -1264 450 0 c248 0 459 1 471 1 19 1 20 7 20 138 l-1
138 -325 0 -325 0 0 1122 c0 741 -3 1124 -10 1125 -5 0 -72 2 -148 2 l-137 2
2 -1264z"/>
<path d="M7178 7246 c-1 -2 -28 -6 -58 -9 -104 -11 -210 -61 -295 -139 -78
-71 -143 -177 -159 -258 -15 -71 -13 -70 -70 -70 -68 0 -194 -32 -254 -65
-116 -63 -214 -180 -256 -307 -70 -208 -13 -428 150 -577 58 -53 176 -117 233
-126 19 -3 38 -8 44 -12 5 -3 354 -5 777 -5 836 0 821 -1 945 58 255 121 373
421 270 685 -106 269 -417 415 -681 319 -101 -37 -94 -38 -94 12 0 81 -66 235
-132 308 -88 97 -219 164 -343 176 -27 3 -55 7 -62 9 -6 2 -13 2 -15 1z m144
-120 c184 -55 311 -227 317 -428 2 -52 -2 -68 -14 -75 -13 -8 -11 -14 18 -44
l33 -34 57 42 c103 75 257 105 377 73 164 -44 299 -190 329 -356 35 -192 -62
-392 -234 -478 -28 -15 -60 -28 -71 -31 -10 -2 -33 -8 -49 -13 -18 -5 -352 -9
-780 -9 -812 0 -817 0 -919 55 -63 34 -154 125 -183 183 -57 117 -66 261 -24
371 87 224 336 344 560 268 63 -21 161 -77 161 -92 0 -18 28 -6 55 22 l29 31
-29 27 c-36 34 -126 85 -176 101 l-37 12 9 42 c16 70 70 169 119 218 122 120
293 164 452 115z"/>
</g>
</svg>
